<svg width="24" height="71" viewBox="0 0 24 71" fill="none" xmlns="http://www.w3.org/2000/svg">
<path d="M12.416 18.464C9.53599 18.464 7.16799 17.632 5.31199 15.968C3.51999 14.24 2.62399 12.128 2.62399 9.632C2.62399 7.072 3.51999 4.928 5.31199 3.2C7.16799 1.472 9.53599 0.608002 12.416 0.608002C15.232 0.608002 17.536 1.472 19.328 3.2C21.184 4.928 22.112 7.072 22.112 9.632C22.112 12.128 21.184 14.24 19.328 15.968C17.536 17.632 15.232 18.464 12.416 18.464ZM23.072 39.392L10.88 70.496H0.127991L6.27199 39.392H23.072Z" fill="url(#paint0_linear)"/>
<defs>
<linearGradient id="paint0_linear" x1="14.4974" y1="-44.654" x2="14.7091" y2="75.6184" gradientUnits="userSpaceOnUse">
<stop stop-color="#FF9966"/>
<stop offset="1" stop-color="#FF5E62"/>
</linearGradient>
</defs>
</svg>
