<svg width="64" height="23" viewBox="0 0 64 23" fill="none" xmlns="http://www.w3.org/2000/svg">
<path fill-rule="evenodd" clip-rule="evenodd" d="M0.456055 17.6745V0H9.87195V2.21808H2.72674V7.04H8.21496V9.26685H2.73551V17.6833L0.456055 17.6745ZM15.0113 3.15799C14.7318 3.4375 14.3527 3.59452 13.9574 3.59452C13.5621 3.59452 13.1831 3.4375 12.9035 3.15799C12.624 2.87848 12.467 2.49939 12.467 2.10411C12.467 1.70883 12.624 1.32974 12.9035 1.05023C13.1831 0.770724 13.5621 0.613699 13.9574 0.613699C14.3527 0.613699 14.7318 0.770724 15.0113 1.05023C15.2908 1.32974 15.4478 1.70883 15.4478 2.10411C15.4478 2.49939 15.2908 2.87848 15.0113 3.15799ZM12.8089 17.6833V5.8126H15.0884V17.6833H12.8089ZM18.3936 11.0554C18.3936 8.02194 20.4977 5.4707 23.5136 5.4707V5.47947C24.8988 5.47947 26.0385 6.0055 26.8714 6.88221V5.82139H29.1508V16.8066C29.1532 17.856 28.8723 18.8865 28.3378 19.7896C27.8033 20.6926 27.035 21.4346 26.1139 21.9374C25.1928 22.4401 24.153 22.685 23.1044 22.646C22.0557 22.6071 21.037 22.2858 20.1557 21.7162L21.2955 19.7436C21.8653 20.1469 22.5842 20.4274 23.3119 20.4274C23.7835 20.4263 24.2501 20.3317 24.6849 20.1491C25.1197 19.9666 25.514 19.6996 25.845 19.3637C26.176 19.0279 26.4371 18.6297 26.6133 18.1923C26.7894 17.7549 26.8772 17.2869 26.8714 16.8154V15.2373C26.0385 16.114 24.8988 16.64 23.5136 16.64C20.4977 16.64 18.3936 14.0888 18.3936 11.0554ZM23.7678 7.68879C22.102 7.68879 20.6642 9.17043 20.6642 11.0554C20.6642 12.9403 22.102 14.4132 23.7678 14.4132C25.4248 14.4132 26.8626 12.9403 26.8626 11.0554C26.8626 9.1792 25.4336 7.68879 23.7678 7.68879ZM37.3393 7.68829C36.6874 7.69981 36.0662 7.96748 35.6101 8.43343C35.154 8.89937 34.8996 9.52613 34.902 10.1782V17.6828H32.6226V5.81213H34.902V6.89925C35.243 6.44725 35.686 6.08222 36.1949 5.83388C36.7038 5.58555 37.2641 5.46094 37.8302 5.47021C39.4258 5.47021 40.6532 6.25925 41.3546 7.46911C41.7459 6.8626 42.2814 6.36255 42.9133 6.01372C43.5452 5.66488 44.2537 5.47814 44.9754 5.47021C47.5617 5.47021 49.1837 7.55678 49.1837 10.1431V17.6828H46.9217V10.1694C46.9241 9.51737 46.6698 8.89061 46.2137 8.42466C45.7576 7.95872 45.1364 7.69104 44.4845 7.67952C43.8326 7.69104 43.2114 7.95872 42.7553 8.42466C42.2992 8.89061 42.0448 9.51737 42.0472 10.1694V17.674H39.7678V10.1694C39.7702 9.51886 39.5171 8.89339 39.0628 8.42769C38.6086 7.96199 37.9897 7.69331 37.3393 7.67952V7.68829ZM61.2997 7.15377C61.3027 7.15681 61.3056 7.15985 61.3085 7.1629H61.2997V7.15377ZM59.4797 5.90377C60.1647 6.19307 60.7839 6.61833 61.2997 7.15377V5.81276H63.5792V17.6834H61.3085V16.3333C60.7899 16.8718 60.1675 17.2994 59.4788 17.5903C58.7901 17.8811 58.0495 18.0292 57.3019 18.0254C53.9178 18.0254 51.5156 15.1673 51.5156 11.7481C51.5156 8.32892 53.9178 5.47084 57.3019 5.47084C58.0497 5.46552 58.7908 5.61283 59.4797 5.90377ZM57.5474 7.68893C55.5222 7.68893 53.7863 9.48619 53.7863 11.7481C53.7863 14.01 55.531 15.7985 57.5474 15.7985C59.5726 15.7985 61.3085 14.01 61.3085 11.7481C61.3085 9.48619 59.5638 7.68893 57.5474 7.68893Z" fill="#012A36"/>
</svg>
