<svg width="24" height="24" viewBox="0 0 24 24" fill="none" xmlns="http://www.w3.org/2000/svg">
<path d="M16.0526 23.0636C15.4526 23.0636 15.0526 22.6636 15.0526 22.0636V18.1636C15.1526 17.3636 14.8526 16.7636 14.3526 16.2636C14.0526 15.9636 13.9526 15.5636 14.1526 15.2636C14.2526 14.8636 14.6526 14.6636 14.9526 14.5636C17.8526 14.2636 20.5526 13.2636 20.5526 8.56362C20.5526 7.46362 20.1526 6.36362 19.3526 5.46362C19.0526 5.16362 19.0526 4.76362 19.1526 4.46362C19.4526 3.66362 19.4526 2.86362 19.2526 2.06362C18.7526 2.16362 17.9526 2.46362 16.6526 3.36362C16.4526 3.56362 16.1526 3.56362 15.8526 3.46362C13.7526 2.86362 11.4526 2.86362 9.3526 3.46362C9.0526 3.56362 8.7526 3.56362 8.4526 3.36362C7.2526 2.46362 6.3526 2.16362 5.8526 2.06362C5.6526 2.86362 5.6526 3.66362 5.9526 4.46362C6.0526 4.86362 6.0526 5.26362 5.7526 5.46362C4.9526 6.36362 4.5526 7.46362 4.5526 8.56362C4.5526 13.2636 7.2526 14.2636 10.1526 14.5636C10.5526 14.5636 10.8526 14.8636 10.9526 15.2636C11.0526 15.6636 10.9526 16.0636 10.7526 16.2636C10.2526 16.7636 10.0526 17.3636 10.0526 18.0636V18.9636V19.0636V21.9636C10.0526 22.5636 9.6526 22.9636 9.0526 22.9636C8.4526 22.9636 8.0526 22.5636 8.0526 21.9636V20.2636C5.0526 20.7636 3.7526 19.0636 2.8526 17.9636C2.4526 17.4636 2.1526 17.0636 1.7526 16.9636C1.2526 16.8636 0.852596 16.2636 1.0526 15.7636C1.1526 15.2636 1.7526 14.8636 2.2526 15.0636C3.2526 15.3636 3.8526 16.0636 4.4526 16.7636C5.2526 17.8636 5.9526 18.6636 8.0526 18.2636V18.1636C8.0526 17.5636 8.1526 16.8636 8.3526 16.3636C5.5526 15.7636 2.5526 13.9636 2.5526 8.66362C2.5526 7.16362 3.0526 5.76362 3.9526 4.66362C3.5526 3.26362 3.6526 1.96362 4.2526 0.663617C4.3526 0.363617 4.5526 0.163617 4.8526 0.0636171C5.2526 -0.0363829 6.5526 -0.236383 9.2526 1.46362C11.4526 0.963617 13.7526 0.963617 15.8526 1.46362C18.4526 -0.236383 19.8526 -0.0363829 20.2526 0.0636171C20.5526 0.163617 20.7526 0.363617 20.8526 0.663617C21.3526 1.96362 21.4526 3.26362 21.1526 4.56362C22.0526 5.66362 22.5526 7.06362 22.5526 8.56362C22.5526 14.2636 19.1526 15.7636 16.7526 16.3636C16.9526 16.9636 17.0526 17.6636 17.0526 18.2636V22.0636C17.0526 22.6636 16.6526 23.0636 16.0526 23.0636Z" fill="#FF5E62"/>
</svg>
