<svg width="24" height="53" viewBox="0 0 24 53" fill="none" xmlns="http://www.w3.org/2000/svg">
<path fill-rule="evenodd" clip-rule="evenodd" d="M14.209 13.7576C14.209 13.746 14.2126 13.7345 14.2197 13.7232L14.2377 13.6539C14.0457 13.72 13.9312 13.8036 13.9312 13.8945C13.9312 14.1089 14.5693 14.2827 15.3564 14.2827C16.1437 14.2827 16.7818 14.1089 16.7818 13.8945C16.7818 13.8117 16.6868 13.735 16.5248 13.672L16.5037 13.7576C16.5037 13.8965 15.99 14.0088 15.3563 14.0088C14.7228 14.0088 14.209 13.8965 14.209 13.7576ZM16.9606 11.905C21.1052 12.1654 23.9862 12.7418 23.9862 13.4111C23.9862 14.3247 18.6167 15.0653 11.9931 15.0653C5.36953 15.0653 0 14.3247 0 13.4111C0 12.4974 5.36953 11.7568 11.9931 11.7568C12.9304 11.7568 13.8425 11.7717 14.7179 11.7997L16.0253 6.75202L22.3841 0.0609404L22.3872 0.0576597C22.5297 -0.0865333 22.9883 0.0416689 23.4131 0.420348C23.8378 0.799027 24.0938 1.24057 23.9676 1.38324L23.962 1.3892L18.0022 7.68142L16.9606 11.905ZM5.21645 41.1657C6.37275 41.4443 8.7773 41.9118 11.8892 41.9118C15.0009 41.9118 17.4054 41.4443 18.5617 41.1657C19.3624 40.9729 20.003 40.7731 20.4874 40.5679L19.0282 43.1207L18.5506 51.4427C18.5506 52.3656 15.6187 53.1138 12.0022 53.1138C8.38566 53.1138 5.45383 52.3656 5.45383 51.4427L4.85059 43.2104L3.30844 40.5756C3.79079 40.7781 4.42573 40.9752 5.21645 41.1657ZM12.0022 15.6181C15.2223 15.6181 18.2535 15.4423 20.5374 15.1233C21.6689 14.9653 22.564 14.779 23.1978 14.5697C23.3492 14.5197 23.6059 14.4342 23.8526 14.298L22.3206 28.4869C22.0009 28.7697 21.7172 29.0182 21.4748 29.2267C21.1215 29.5309 20.8297 29.7734 20.6 29.9541C20.3704 30.1348 20.1916 30.2617 20.0642 30.3349C19.937 30.4081 19.8402 30.4447 19.7746 30.4447C19.6935 30.4447 19.6356 30.4275 19.6009 30.3933C19.5661 30.3588 19.5486 30.3143 19.5486 30.2594C19.5523 30.2182 19.6039 30.1394 19.7021 30.0225C19.8006 29.9059 19.9223 29.7643 20.0672 29.5971C20.2121 29.4301 20.3675 29.245 20.5336 29.0414C20.6994 28.8378 20.8539 28.6287 20.9969 28.4135C21.1399 28.1987 21.2585 27.9849 21.3531 27.7722C21.4478 27.5595 21.495 27.3595 21.495 27.1717C21.495 27.0299 21.4641 26.9052 21.4023 26.7978C21.3407 26.6903 21.2605 26.6013 21.1619 26.5301C21.0636 26.4593 20.9514 26.4055 20.826 26.369C20.7005 26.3323 20.574 26.314 20.4466 26.314C20.2613 26.314 20.0758 26.353 19.8906 26.4305C19.7051 26.5086 19.5237 26.609 19.3458 26.7326C19.1682 26.8559 18.9964 26.9946 18.8303 27.1479C18.6642 27.301 18.5096 27.4553 18.367 27.6109C18.3785 27.5835 18.3909 27.54 18.4046 27.4806C18.4181 27.4211 18.4308 27.3581 18.4424 27.2919C18.4539 27.2256 18.4633 27.1626 18.4712 27.1031C18.4789 27.0436 18.4828 27.0002 18.4828 26.9728C18.4828 26.8355 18.448 26.7315 18.3785 26.6604C18.3091 26.5897 18.197 26.5541 18.0425 26.5541C17.9421 26.5541 17.8484 26.608 17.7614 26.7154C17.6748 26.8228 17.5964 26.9499 17.5269 27.0962C17.4574 27.2426 17.3955 27.3912 17.3416 27.5422C17.2876 27.6933 17.245 27.8098 17.2141 27.8923C17.1616 28.0789 17.102 28.2697 17.0368 28.4645C17.0035 28.4784 16.9731 28.497 16.9478 28.5233C16.8396 28.6332 16.7167 28.7533 16.5797 28.8835C16.4427 29.014 16.2989 29.1442 16.1481 29.2748C15.9976 29.4052 15.8461 29.5309 15.6933 29.6521C15.541 29.7734 15.3943 29.8809 15.2532 29.9745C15.1121 30.0682 14.9809 30.1439 14.8593 30.201C14.7376 30.2583 14.6363 30.2869 14.5552 30.2869C14.4896 30.2869 14.4452 30.2662 14.4221 30.225C14.3989 30.1838 14.3873 30.1289 14.3873 30.0605C14.3873 29.9507 14.4074 29.8259 14.4481 29.6865C14.4885 29.547 14.53 29.4245 14.5725 29.3193C14.6692 29.0724 14.7839 28.7807 14.9171 28.4445C15.0504 28.1081 15.1935 27.7527 15.3458 27.3775C15.4984 27.0024 15.6549 26.6171 15.815 26.2214C15.9752 25.8257 16.1317 25.445 16.2843 25.079C16.4368 24.7131 16.5797 24.3746 16.713 24.0634C16.8463 23.7524 16.9613 23.4895 17.0576 23.2744C17.108 23.1692 17.1495 23.0709 17.1823 22.9794C17.2151 22.888 17.2316 22.801 17.2316 22.7187C17.2316 22.5448 17.1823 22.4191 17.0837 22.3412C16.9851 22.2635 16.8761 22.2246 16.7566 22.2246C16.6368 22.2246 16.5181 22.2613 16.4001 22.3343C16.2825 22.4075 16.1888 22.5334 16.1193 22.7118L14.3642 27.1374C14.2481 27.4302 14.1207 27.7527 13.9818 28.105C13.8427 28.4572 13.7055 28.8114 13.5704 29.1685C13.4961 29.3572 13.4323 29.5648 13.3778 29.7894C13.3292 29.83 13.2801 29.8688 13.2314 29.9059C13.0365 30.0546 12.8501 30.17 12.6724 30.2524C12.4948 30.3349 12.3461 30.3761 12.2264 30.3761C12.0565 30.3761 11.9716 30.2936 11.9716 30.1289C11.9716 29.9507 11.9975 29.7573 12.0498 29.5492C12.102 29.3411 12.1674 29.1284 12.2469 28.9111C12.3257 28.6937 12.4119 28.4801 12.5045 28.2694C12.597 28.0592 12.6829 27.8614 12.7622 27.6761C12.8413 27.4908 12.9069 27.3261 12.9592 27.182C13.0114 27.038 13.0373 26.9245 13.0373 26.8422C13.0373 26.696 12.9969 26.5703 12.9159 26.4649C12.8346 26.3598 12.7247 26.3071 12.5855 26.3071C12.4582 26.3071 12.3518 26.3575 12.267 26.458C12.182 26.5587 12.1068 26.6844 12.0411 26.8355C11.9755 26.9866 11.9145 27.151 11.8586 27.3295C11.8026 27.5078 11.7379 27.675 11.6645 27.8304C11.5603 28.0637 11.43 28.3208 11.2735 28.6022C11.1171 28.8835 10.9424 29.1467 10.7493 29.3914C10.556 29.6361 10.3456 29.8408 10.1179 30.0055C9.8899 30.17 9.65045 30.2524 9.39956 30.2524C9.31079 30.2524 9.24696 30.2182 9.20836 30.1496C9.16963 30.0809 9.15047 30.0055 9.15047 29.9232C9.15805 29.7267 9.19099 29.5241 9.24889 29.316C9.30679 29.1078 9.3764 28.9033 9.45746 28.7019C9.53852 28.5005 9.62633 28.3061 9.72103 28.1187C9.8156 27.931 9.90548 27.7561 9.99026 27.5937C10.0753 27.4313 10.1498 27.2872 10.2136 27.1612C10.277 27.0355 10.3185 26.934 10.3379 26.8559C10.3495 26.8151 10.3554 26.7714 10.3554 26.7256C10.3554 26.657 10.3397 26.5964 10.3091 26.5439C10.2781 26.4914 10.2374 26.4478 10.1874 26.4135C10.1371 26.3792 10.0832 26.3541 10.025 26.338C9.9671 26.3221 9.91113 26.314 9.85696 26.314C9.73344 26.314 9.61875 26.3518 9.51233 26.4273C9.40632 26.5027 9.31258 26.6273 9.23152 26.8013C8.91488 27.4598 8.66964 28.0202 8.49567 28.4821C8.32211 28.9442 8.19364 29.3205 8.11065 29.6109C8.02752 29.9013 7.97831 30.114 7.96287 30.249C7.94743 30.3841 7.93971 30.4538 7.93971 30.4584C7.93971 30.6549 7.96673 30.8187 8.02077 30.949C8.07495 31.0792 8.14621 31.1835 8.23513 31.2611C8.32391 31.3388 8.42716 31.3937 8.54502 31.4258C8.66288 31.4578 8.78543 31.4738 8.91295 31.4738C9.19472 31.4738 9.45539 31.4269 9.69498 31.3332C9.93429 31.2394 10.1504 31.117 10.3438 30.9662C10.5368 30.8151 10.7086 30.6482 10.8594 30.4651C11.0099 30.2823 11.1354 30.1016 11.2358 29.9232C11.1741 30.2021 11.1433 30.4468 11.1433 30.6574C11.1433 30.9546 11.201 31.1651 11.3168 31.2885C11.4329 31.412 11.5834 31.4738 11.769 31.4738C11.9541 31.4738 12.1628 31.4224 12.3944 31.3194C12.6261 31.2166 12.8617 31.0804 13.1012 30.9113C13.1701 30.8625 13.2385 30.8111 13.3063 30.7583L13.3076 30.7677C13.3131 30.8069 13.3185 30.8461 13.327 30.8838C13.354 31.0027 13.3995 31.1057 13.4633 31.1926C13.5271 31.2793 13.6119 31.3479 13.7182 31.3984C13.8243 31.4487 13.9565 31.4738 14.1148 31.4738C14.3467 31.4738 14.5851 31.4188 14.8305 31.3092C15.0755 31.1993 15.3226 31.0518 15.5719 30.8665C15.821 30.6813 16.0709 30.4676 16.3221 30.225C16.328 30.2192 16.3339 30.2132 16.3399 30.2072C16.3458 30.2011 16.3518 30.1951 16.3579 30.1891C16.3412 30.2278 16.3249 30.2663 16.3086 30.3047C16.2855 30.3592 16.2624 30.4136 16.2381 30.4687C16.0391 30.9193 15.8315 31.3744 15.6153 31.834C15.3991 32.2939 15.1867 32.7524 14.978 33.2098C14.9473 33.2922 14.9134 33.3778 14.8768 33.4671C14.8402 33.5563 14.8043 33.6476 14.7696 33.7416C14.7348 33.8352 14.7058 33.9303 14.6826 34.0264C14.6594 34.1223 14.6479 34.2161 14.6479 34.3076C14.6479 34.4949 14.6933 34.622 14.7839 34.6883C14.8749 34.7545 14.9896 34.7879 15.1288 34.7879C15.2368 34.7879 15.3342 34.764 15.4212 34.7158C15.5082 34.6678 15.5854 34.6038 15.6529 34.5239C15.7206 34.4437 15.7803 34.351 15.8326 34.246C15.8845 34.1404 15.93 34.0286 15.9685 33.9096C15.9801 33.8684 16.0074 33.7905 16.0498 33.6764C16.0921 33.562 16.1413 33.4292 16.1974 33.2784C16.2534 33.1275 16.3135 32.9671 16.3769 32.7981C16.4408 32.6287 16.5017 32.4674 16.5596 32.3143C16.6173 32.1611 16.6686 32.0273 16.713 31.9128C16.7574 31.7984 16.7892 31.7208 16.8085 31.6797C16.824 31.6476 16.85 31.5892 16.887 31.5047L17.0113 31.2166C17.0576 31.1092 17.1088 30.9947 17.1648 30.8733C17.2207 30.7524 17.2738 30.6345 17.3241 30.5201C17.3743 30.4058 17.4206 30.3027 17.4631 30.2112C17.5057 30.1199 17.5385 30.0489 17.5616 29.9985C17.639 29.8386 17.7326 29.6637 17.8427 29.4738C17.9529 29.284 18.0743 29.0953 18.2076 28.9075C18.3409 28.7202 18.4839 28.5395 18.6362 28.3656C18.7888 28.1919 18.9452 28.0374 19.1054 27.9025C19.2656 27.7676 19.428 27.6598 19.5923 27.5799C19.7562 27.4999 19.9156 27.4598 20.0701 27.4598C20.1588 27.4598 20.2226 27.4761 20.2613 27.5078C20.2998 27.54 20.3192 27.5835 20.3192 27.6383C20.3192 27.7299 20.2729 27.8487 20.18 27.9951C20.0874 28.1416 19.9706 28.3029 19.8297 28.4787C19.6887 28.655 19.5351 28.8414 19.369 29.0379C19.2029 29.2347 19.0466 29.4292 18.8998 29.6213C18.7531 29.8134 18.6276 29.9985 18.5234 30.177C18.4192 30.3553 18.3591 30.5134 18.3438 30.6504C18.3398 30.6733 18.3379 30.6929 18.3379 30.7088V30.7603C18.3379 30.9845 18.4181 31.1606 18.5783 31.2885C18.7385 31.4166 18.9655 31.4807 19.259 31.4807C19.5718 31.4807 19.8653 31.4213 20.1396 31.3022C20.4138 31.1835 20.6949 31.0152 20.9824 30.7979C21.2701 30.5806 21.5763 30.3211 21.9008 30.0193C21.9879 29.938 22.079 29.854 22.1726 29.7681L21.0416 39.5835C20.8402 40.0968 16.9796 41.3604 11.8892 41.3604C6.80106 41.3604 2.94203 40.0981 2.73705 39.5843L1.94964 31.3286L1.95068 31.3294C1.98342 31.3531 2.01631 31.377 2.0511 31.3984C2.2463 31.5173 2.47899 31.5769 2.74932 31.5769C2.98491 31.5769 3.23014 31.5195 3.48503 31.4053C3.73978 31.2909 3.99274 31.1433 4.24391 30.9626C4.4948 30.782 4.74003 30.5784 4.97962 30.3521C5.21907 30.1256 5.44087 29.8981 5.64586 29.6693C5.57624 29.8843 5.49794 30.1278 5.41123 30.3999C5.32439 30.6722 5.24319 30.9352 5.16793 31.1891C5.09252 31.443 5.02787 31.6705 4.97383 31.8716C4.91966 32.073 4.89057 32.2103 4.88685 32.2837C4.88299 32.3199 4.88119 32.3544 4.88119 32.3865V32.4826C4.88119 32.702 4.90904 32.853 4.96515 32.9354C5.02098 33.0176 5.11086 33.0588 5.23437 33.0588C5.30785 33.0588 5.37925 33.0323 5.44873 32.9798C5.51835 32.9274 5.58203 32.8608 5.63993 32.7809C5.69797 32.7009 5.74814 32.6162 5.7906 32.527C5.83292 32.4379 5.86394 32.3566 5.88324 32.2837C5.89096 32.2605 5.91219 32.1874 5.94693 32.0639C5.9818 31.9403 6.02523 31.7871 6.07733 31.6043C6.1293 31.4213 6.18831 31.2166 6.25406 30.9902C6.31968 30.7637 6.38819 30.5327 6.45974 30.2971C6.53114 30.0615 6.60048 29.8306 6.66817 29.6041C6.73571 29.3776 6.79858 29.173 6.85647 28.99C6.91451 28.8072 6.96358 28.655 7.00411 28.5335C7.04478 28.4124 7.07276 28.3405 7.0882 28.3177C7.15754 28.1163 7.22909 27.923 7.30242 27.7377C7.37576 27.5524 7.44248 27.3683 7.50231 27.1855C7.56227 27.0024 7.61149 26.8151 7.65009 26.6228C7.68868 26.4305 7.70798 26.2248 7.70798 26.0052C7.70798 25.9229 7.69544 25.8508 7.67035 25.7892C7.64526 25.7273 7.61149 25.6771 7.56903 25.6381C7.52643 25.5994 7.47832 25.5707 7.42415 25.5524C7.36997 25.5342 7.31593 25.5249 7.26203 25.5249C7.14996 25.5249 7.04078 25.5616 6.93464 25.6348C6.82835 25.708 6.74247 25.8315 6.67685 26.0052L6.13813 27.6177C6.07237 27.755 5.97395 27.9162 5.84257 28.1015C5.71134 28.2866 5.56067 28.4801 5.39083 28.6812C5.221 28.8826 5.03766 29.0815 4.84053 29.2781C4.64354 29.4749 4.44751 29.651 4.25245 29.8066C4.05753 29.962 3.86922 30.088 3.68781 30.1838C3.50612 30.2798 3.34401 30.3278 3.20106 30.3278C3.07368 30.3278 2.9685 30.2925 2.88538 30.2214C2.80239 30.1507 2.73663 30.0605 2.68852 29.9507C2.64014 29.8408 2.60747 29.7185 2.58996 29.5834C2.57273 29.4487 2.56391 29.3171 2.56391 29.1889C2.56391 28.8047 2.62663 28.3713 2.75221 27.8888C2.87779 27.4063 3.04652 26.9168 3.25895 26.4203C3.47138 25.924 3.7158 25.4392 3.99191 24.9658C4.26803 24.4923 4.55669 24.0716 4.85804 23.7032C5.1591 23.335 5.4632 23.0388 5.77034 22.8148C6.07733 22.5906 6.366 22.4785 6.63632 22.4785C6.81016 22.4785 6.9713 22.5278 7.12005 22.626C7.26865 22.7245 7.40471 22.8833 7.52836 23.1029C7.65974 23.3454 7.77843 23.5317 7.88471 23.6621C7.99086 23.7924 8.10569 23.8576 8.22948 23.8576C8.36457 23.8576 8.48147 23.7982 8.5799 23.6792C8.67832 23.5604 8.72754 23.3979 8.72754 23.1921C8.72754 23.1052 8.71899 23.0126 8.70148 22.9142C8.68425 22.8159 8.64262 22.7187 8.577 22.6226C8.2911 22.1926 7.98424 21.8815 7.65601 21.6895C7.32765 21.4973 6.98771 21.4012 6.63632 21.4012C6.33126 21.4012 6.0233 21.4677 5.7123 21.6003C5.40145 21.7329 5.09349 21.9171 4.78842 22.1525C4.48322 22.3882 4.18601 22.6695 3.89624 22.9964C3.60662 23.3236 3.33326 23.6816 3.07658 24.0703C2.81976 24.4592 2.58224 24.8721 2.36402 25.3088C2.14594 25.7456 1.95377 26.1928 1.78766 26.6502C1.70647 26.8734 1.63327 27.0974 1.56751 27.3217L0.152464 14.2984C0.399081 14.4343 0.655347 14.5197 0.806571 14.5697C1.44055 14.779 2.33562 14.9653 3.46697 15.1233C5.7509 15.4423 8.78213 15.6181 12.0022 15.6181Z" fill="#012A36"/>
</svg>
