<svg width="75" height="38" viewBox="0 0 75 38" fill="none" xmlns="http://www.w3.org/2000/svg">
<path fill-rule="evenodd" clip-rule="evenodd" d="M3.35745 35.0457H0.912418H0.908203L0.908624 25.3596C0.908624 24.4191 1.28465 23.9671 2.0561 23.7226C3.93667 23.1586 5.19713 23.6476 5.74262 24.9072L9.35411 33.2583L13.0967 24.9072C13.6607 23.6476 14.9022 23.1586 16.7642 23.7226C17.5542 23.9671 17.9307 24.4195 17.9307 25.3596V35.0457H15.4667V25.3596L11.6672 33.8046C11.2203 34.8193 10.6361 35.1958 9.43294 35.1958C8.22981 35.1958 7.60844 34.8197 7.17592 33.8046L3.35745 25.3596V35.0457ZM19.9702 27.1651H19.966L19.9702 27.1642V27.1651ZM19.9702 27.1651V32.6571C19.9883 33.8797 21.5498 34.9517 23.9763 34.9706H29.1867V35.6106C29.1867 35.6329 29.1881 35.659 29.1896 35.6882C29.2059 36.0035 29.2408 36.678 27.7947 36.8331H20.0267V38.4687H27.7749C29.0126 38.4493 31.6684 37.9797 31.6684 35.8357V27.1271H29.2044V33.4842C29.2017 33.4842 29.1737 33.4843 29.124 33.4845C28.5045 33.4868 24.5072 33.5018 23.8633 33.4842C22.524 33.4661 22.4114 32.7887 22.43 32.4881V27.1651H19.9702ZM72.816 20.9955C72.8167 20.9955 72.8175 20.9956 72.8183 20.9956L72.8162 20.9973C72.8161 20.9967 72.816 20.9961 72.816 20.9955ZM69.1693 21.5225C70.1468 21.1088 71.313 20.9578 72.816 20.9955C72.772 20.715 72.2354 20.3815 71.8424 20.1373C71.7102 20.0551 71.5942 19.9831 71.5187 19.9265C70.9171 19.494 70.2776 19.0425 69.6385 18.6475C69.4313 18.5214 69.1335 18.4157 68.8472 18.3141C68.6646 18.2493 68.4867 18.1862 68.3401 18.1206C68.1896 18.0592 67.9846 17.9979 67.7632 17.9316C67.2379 17.7745 66.6207 17.5899 66.422 17.312C65.9122 16.649 65.556 15.8472 65.2002 15.0463C65.1624 14.9612 65.1245 14.876 65.0865 14.7911C64.8987 14.3605 64.6893 13.9216 64.4787 13.4802C64.2475 12.9957 64.0149 12.5082 63.808 12.0257C63.7166 11.8269 63.6473 11.6391 63.5791 11.4542C63.4923 11.2191 63.4073 10.9888 63.281 10.7467C61.9084 8.09424 59.8765 5.87474 57.4129 4.31371C56.6035 3.80532 55.701 3.3357 54.704 3.01532C54.4001 2.92441 54.0634 2.90971 53.7233 2.89486C53.4325 2.88217 53.1392 2.86937 52.8618 2.80875H52.4664C52.2385 2.74519 52.0361 2.56246 51.8477 2.39244C51.7562 2.30987 51.6681 2.23029 51.5819 2.16883C50.9989 1.77425 50.4159 1.5112 49.7203 1.22876C49.4758 1.11662 48.7794 0.85357 48.5349 1.06013C48.3853 1.09807 48.3094 1.15414 48.2723 1.30464C48.1218 1.53059 48.2533 1.86952 48.3473 2.07609C48.5341 2.47383 48.7697 2.76486 49.0112 3.06325C49.135 3.21615 49.2603 3.37099 49.3814 3.54311C49.4384 3.62346 49.4978 3.70563 49.5582 3.78917C49.8366 4.17456 50.1363 4.58927 50.3223 4.99116C50.5839 5.55413 50.7701 6.14913 50.9556 6.742C51.1172 7.25853 51.2783 7.77344 51.4884 8.26413C51.6578 8.65913 51.9205 9.1102 52.165 9.46768C52.2418 9.57238 52.3418 9.66666 52.4429 9.76206C52.6146 9.92401 52.7897 10.0892 52.8614 10.3142C53.044 10.6186 52.7085 11.4902 52.5043 12.0207C52.4563 12.1455 52.4155 12.2515 52.3905 12.3267C51.9015 13.8692 51.9959 16.0132 52.56 17.3487C52.5801 17.3957 52.6001 17.4435 52.6203 17.4917C52.8257 17.9821 53.0466 18.5096 53.594 18.6462C53.6089 18.6295 53.6107 18.6238 53.6145 18.6211C53.6194 18.6177 53.6275 18.6189 53.6699 18.6083C53.6975 18.3916 53.7209 18.1765 53.744 17.9644C53.8311 17.1643 53.9134 16.4074 54.196 15.7683C54.3314 15.4376 54.5539 15.1703 54.7707 14.9099C54.8867 14.7706 55.001 14.6333 55.0994 14.4893C55.2182 14.5602 55.2617 14.722 55.3066 14.8886C55.3326 14.9852 55.3591 15.0833 55.4008 15.1663C55.4149 15.2 55.4291 15.2339 55.4433 15.2679C55.6751 15.823 55.9254 16.4225 56.2094 16.9718C56.8303 18.1754 57.5259 19.3418 58.3155 20.3949C58.579 20.7709 58.955 21.1849 59.2935 21.5234C59.345 21.5684 59.3987 21.6068 59.4515 21.6447C59.5533 21.7177 59.6521 21.7885 59.7264 21.8994H59.7635V21.9563C59.4063 21.8255 59.1319 21.5435 58.8642 21.2683C58.7092 21.109 58.5563 20.9519 58.3909 20.8278C57.5449 20.1879 56.5289 19.2284 55.9459 18.3069L55.1745 16.7459V16.7079C55.103 16.8038 55.0922 16.8995 55.0793 17.0143C55.0718 17.0803 55.0637 17.1526 55.0429 17.2349C54.9732 17.5033 54.9387 17.7823 54.9054 18.052C54.8219 18.7275 54.7457 19.344 54.1408 19.5859C53.1771 19.9813 52.4668 18.9464 52.1654 18.4764C51.2063 16.9158 50.9429 14.2827 51.6203 12.1572C51.6727 11.9934 51.709 11.8184 51.7452 11.6439C51.8131 11.3168 51.8806 10.9917 52.0524 10.7463C52.0149 10.52 51.8848 10.4028 51.7577 10.2883C51.6947 10.2315 51.6323 10.1753 51.5824 10.1068C51.3189 9.7497 51.0976 9.33531 50.8868 8.94031C50.5851 8.35111 50.3491 7.67412 50.1205 7.01846C50.0498 6.81566 49.9798 6.61489 49.9088 6.41939C49.8426 6.24956 49.799 6.07962 49.756 5.91207C49.7133 5.74567 49.6712 5.58163 49.6082 5.42241C49.4293 5.03593 49.1337 4.64945 48.8595 4.29086C48.7868 4.19573 48.7155 4.10256 48.6483 4.01188C48.5746 3.90491 48.4762 3.78066 48.3664 3.64201C47.8387 2.97572 47.0475 1.97679 47.468 0.964861C48.2584 -0.972618 51.0234 0.494403 52.0954 1.17142C52.2025 1.24031 52.3157 1.34027 52.4327 1.44348C52.6034 1.59418 52.782 1.75184 52.9609 1.8299L54.3714 1.90578C54.4484 1.92386 54.525 1.94165 54.6011 1.95935C55.395 2.1438 56.1396 2.3168 56.7743 2.67723C60.0093 4.57719 62.1163 6.51425 64.0537 9.71176C64.3161 10.1417 64.4955 10.5944 64.6781 11.0554C64.7831 11.3204 64.8892 11.5881 65.0128 11.8558C65.4828 12.9468 66.0098 14.0938 66.5548 15.1284C66.6233 15.2655 66.6874 15.4071 66.7516 15.5489C66.9164 15.9133 67.082 16.2795 67.3263 16.5768C67.414 16.7022 67.6101 16.7691 67.7982 16.8332C67.8923 16.8653 67.9843 16.8966 68.0598 16.9343C68.3024 17.0591 68.5652 17.1725 68.8302 17.2869C69.2429 17.465 69.6608 17.6454 70.0158 17.8744C71.1068 18.5514 72.1607 19.3604 73.1197 20.1879C73.3133 20.3611 73.4737 20.573 73.634 20.7847C73.7694 20.9636 73.9048 21.1424 74.0598 21.2974V21.466C73.7584 21.5601 73.4578 21.6536 73.1564 21.7295C72.8288 21.8137 72.5199 21.8468 72.2131 21.8796C71.9041 21.9127 71.5974 21.9455 71.2763 22.0301C71.2352 22.0418 71.193 22.054 71.1501 22.0664C70.78 22.1731 70.3489 22.2975 69.9787 22.3315L70.0158 22.3694C70.1971 22.8852 70.9675 23.3286 71.5991 23.6921C71.8194 23.8189 72.0228 23.936 72.1784 24.043C72.9119 24.5691 73.5894 25.2091 74.1344 25.9426C74.2286 26.0364 74.3228 26.1257 74.4169 26.2151C74.511 26.3045 74.6051 26.3938 74.6993 26.4876C74.7625 26.5787 74.8041 26.6827 74.8449 26.7849C74.8888 26.8947 74.9318 27.0023 74.9999 27.0896V27.1465C74.8371 27.0887 74.7261 26.9731 74.6153 26.8576C74.5468 26.7863 74.4784 26.715 74.3979 26.6575C74.2207 26.5366 74.0436 26.4055 73.8665 26.2743C73.6299 26.0991 73.3932 25.9238 73.1564 25.7731C72.7922 25.543 72.3986 25.3617 72.0031 25.1795C71.6227 25.0043 71.2405 24.8282 70.8809 24.6071C70.4677 24.3436 70.0727 24.043 69.6773 23.7416C69.3202 23.4786 68.9248 22.9714 68.6993 22.595C68.6422 22.5053 68.6065 22.4086 68.5721 22.3156C68.5269 22.1936 68.4841 22.0779 68.3987 21.993C68.4264 21.7269 68.6849 21.6594 68.9314 21.5949C69.0153 21.573 69.0978 21.5514 69.1693 21.5225ZM52.8669 4.74497C53.1185 4.68026 53.3776 4.64866 53.6375 4.65096V4.6518C53.697 4.71102 53.7711 4.76158 53.846 4.81264C53.9609 4.89098 54.0775 4.9705 54.1459 5.08432C54.1876 5.14276 54.2145 5.20128 54.2414 5.25981C54.275 5.33301 54.3086 5.40623 54.3714 5.47932C54.3714 5.93039 54.2394 6.23138 53.976 6.41939L53.9389 6.45733L53.5059 5.55436C53.4326 5.45162 53.3478 5.35746 53.2627 5.26298C53.1296 5.11516 52.9958 4.96653 52.904 4.78291H52.8669V4.74497ZM40.6179 35.0458H33.5459V33.4102H40.3389C40.3864 33.4102 40.4241 33.4054 40.4617 33.4007C40.4991 33.3959 40.5365 33.3912 40.5834 33.3912C41.0534 33.3722 41.4117 33.2403 41.6373 33.0527C41.8628 32.8651 41.9758 32.6383 41.9758 32.4697V31.0406C41.9758 30.8711 41.9378 30.7392 41.7873 30.5887C41.5618 30.3071 41.2233 30.1756 40.4519 30.1005C40.3768 30.0816 40.2832 30.0816 40.1892 30.0816H37.6498C37.4053 30.0816 37.1608 30.0816 36.9352 30.0626C34.8287 29.8371 33.5872 28.8957 33.5872 27.787V26.3567C33.5872 25.0971 34.2267 24.3821 35.6752 23.931C36.1456 23.7805 36.6722 23.7236 37.6691 23.7236H44.5532V25.3605H37.3121C36.4424 25.4541 36.1789 25.5861 36.0474 26.094C36.0289 26.1691 36.0289 26.2437 36.0289 26.3006V26.3006V27.4106V27.4106C36.0289 27.4856 36.0289 27.5611 36.0474 27.6361C36.1794 28.2937 36.6494 28.5951 37.6464 28.5951H40.6184C41.3519 28.5951 42.1044 28.7271 42.7063 28.9526C43.8719 29.4037 44.455 30.0626 44.455 30.7582V32.5637C44.455 33.4291 43.947 34.0868 42.875 34.5758C42.2359 34.8772 41.4455 35.0458 40.6179 35.0458ZM63.546 35.0087C61.0293 34.8199 59.7647 33.8798 59.7647 32.2062L59.76 32.2066V23.7236H62.2291V32.1877C62.2291 33.0527 62.7742 33.4102 64.2045 33.4102H70.6556V35.0458H64.2606C64.0236 35.0458 63.8045 35.0288 63.5687 35.0105L63.546 35.0087ZM46.0156 26.4507V32.2808C46.0156 33.6357 46.787 34.4628 48.3468 34.8962C48.8135 35.0183 49.2938 35.0814 49.7763 35.0838H52.4093L54.3847 34.9708L56.3408 36.7384H59.1804L56.7733 34.5572C57.7897 34.1243 58.2218 33.4844 58.2218 32.2808V26.4507C58.2218 24.9643 57.1877 24.0613 55.1377 23.7797C55.1088 23.7775 55.0805 23.7752 55.0526 23.773C54.8437 23.7565 54.6569 23.7418 54.4412 23.7418H49.7771C49.5706 23.7418 49.345 23.7607 49.1195 23.7797C47.0686 24.0613 46.0156 24.9647 46.0156 26.4507ZM48.6943 32.2785C48.6802 32.2335 48.6672 32.1919 48.6672 32.1501L48.6676 26.6008C48.6676 25.8491 49.3821 25.3791 50.4731 25.3791H54.1786C55.1381 25.3791 55.7772 25.7361 55.9087 26.3752C55.9277 26.4511 55.9277 26.5257 55.9277 26.6008V32.1872C55.9277 32.2631 55.9277 32.3567 55.9087 32.4317C55.8336 32.7703 55.6271 33.0337 55.2877 33.2222L53.5012 31.6042H50.6616L52.6926 33.4477H50.4727C49.4947 33.4477 48.8556 33.0712 48.7241 32.3946C48.7175 32.3526 48.7056 32.3144 48.6943 32.2785Z" fill="#012A36"/>
</svg>
