<svg width="56" height="28" viewBox="0 0 56 28" fill="none" xmlns="http://www.w3.org/2000/svg">
<path fill-rule="evenodd" clip-rule="evenodd" d="M23.0122 0.55957H27.108L25.9505 6.22845H29.6308C31.6491 6.26821 33.1527 6.68373 34.1422 7.47501C35.1513 8.26629 35.4481 9.77045 35.0326 11.9864L33.044 21.8698H28.8888L30.7884 12.4316C30.986 11.4421 30.9267 10.7398 30.6103 10.3243C30.2939 9.90877 29.6112 9.70101 28.5624 9.70101L25.2679 9.67133L22.8341 21.8698H18.7383L23.0122 0.55957ZM4.24424 6.22852H12.1985C14.5331 6.24812 16.2249 6.92124 17.2738 8.24676C18.3226 9.57228 18.6687 11.3828 18.3126 13.6782C18.1742 14.7271 17.8674 15.7558 17.3925 16.7649C16.9372 17.774 16.3044 18.684 15.493 19.4955C14.5034 20.5242 13.445 21.1772 12.3172 21.4544C11.1894 21.7316 10.0218 21.8699 8.81496 21.8699H5.25336L4.12552 27.5091H0L4.24424 6.22852ZM5.936 18.516L7.71086 9.64172H8.3104C8.52824 9.64172 8.7556 9.63164 8.99304 9.61204C10.5762 9.59244 11.8916 9.74084 12.9405 10.0572C14.009 10.3736 14.3651 11.5709 14.009 13.6485C13.5738 16.122 12.7226 17.5663 11.4565 17.9818C10.1903 18.3777 8.6072 18.5653 6.70768 18.5457H6.29216C6.17344 18.5457 6.05472 18.5356 5.936 18.516ZM47.385 6.22852H39.4308L35.1865 27.5091H39.312L40.4399 21.8699H44.0015C45.2083 21.8699 46.3759 21.7316 47.5037 21.4544C48.6316 21.1772 49.69 20.5242 50.6795 19.4955C51.4909 18.684 52.1237 17.774 52.579 16.7649C53.0539 15.7558 53.3608 14.7271 53.4991 13.6782C53.8552 11.3828 53.5092 9.57228 52.4603 8.24676C51.4114 6.92124 49.7196 6.24812 47.385 6.22852ZM42.8974 9.64172L41.1225 18.516C41.2412 18.5356 41.36 18.5457 41.4787 18.5457H41.8942C43.7937 18.5653 45.3768 18.3777 46.643 17.9818C47.9092 17.5663 48.7604 16.122 49.1955 13.6485C49.5516 11.5709 49.1955 10.3736 48.127 10.0572C47.0781 9.74084 45.7627 9.59244 44.1796 9.61204C43.9421 9.63164 43.7148 9.64172 43.4969 9.64172H42.8974Z" fill="#012A36"/>
</svg>
