<svg width="49" height="37" viewBox="0 0 49 37" fill="none" xmlns="http://www.w3.org/2000/svg">
<path d="M42.3045 21.6677C40.6309 21.6764 39.1763 22.0793 37.9584 22.6748C37.5115 21.7903 37.0646 21.0021 36.9857 20.4241C36.8981 19.7497 36.793 19.3381 36.8981 18.5324C37.0033 17.7267 37.4764 16.5794 37.4677 16.4918C37.4589 16.4043 37.3625 15.9926 36.3987 15.9839C35.4348 15.9751 34.6024 16.1678 34.506 16.4218C34.4096 16.6757 34.2256 17.2538 34.1029 17.8493C33.9364 18.7251 32.1752 21.8516 31.1676 23.4893C30.8433 22.85 30.563 22.2895 30.5016 21.8428C30.414 21.1685 30.3088 20.7569 30.414 19.9511C30.5191 19.1454 30.9923 17.9982 30.9835 17.9106C30.9748 17.823 30.8784 17.4114 29.9145 17.4026C28.9507 17.3939 28.1183 17.5866 28.0219 17.8405C27.9255 18.0945 27.8203 18.69 27.6188 19.268C27.4173 19.8461 25.0777 25.0657 24.4644 26.4144C24.1489 27.1062 23.8773 27.658 23.6845 28.0345C23.6845 28.0345 23.6758 28.0608 23.6495 28.1046C23.483 28.4286 23.3866 28.6038 23.3866 28.6038C23.3866 28.6038 23.3866 28.6038 23.3866 28.6126C23.2552 28.849 23.115 29.068 23.0449 29.068C22.9923 29.068 22.8959 28.4374 23.0624 27.5791C23.4129 25.7663 24.2453 22.9463 24.2366 22.85C24.2366 22.7974 24.3943 22.307 23.6933 22.053C23.0098 21.799 22.7645 22.2194 22.7032 22.2194C22.6418 22.2194 22.598 22.3683 22.598 22.3683C22.598 22.3683 23.3603 19.198 21.1435 19.198C19.759 19.198 17.8488 20.7131 16.9025 22.0793C16.3067 22.4033 15.0361 23.0952 13.678 23.8396C13.161 24.1286 12.6265 24.4176 12.127 24.6891C12.092 24.6541 12.0569 24.6103 12.0219 24.5752C9.34061 21.7115 4.38114 19.6884 4.59143 15.8438C4.67029 14.4425 5.15222 10.7643 14.1161 6.29782C21.4939 2.66335 27.3647 3.67049 28.3811 5.90372C29.8357 9.09154 25.2355 15.0118 17.6122 15.87C14.7032 16.1941 13.1785 15.0731 12.793 14.6527C12.3899 14.2148 12.3286 14.1885 12.1796 14.2761C11.9343 14.4075 12.092 14.8016 12.1796 15.0293C12.4074 15.6248 13.345 16.6757 14.931 17.1925C16.3329 17.6479 19.7415 17.9018 23.8685 16.3079C28.4863 14.5213 32.0964 9.5557 31.0361 5.39577C29.9759 1.17454 22.966 -0.217947 16.3329 2.13789C12.3899 3.53913 8.11388 5.74608 5.03831 8.61862C1.38442 12.0341 0.806108 15.003 1.04269 16.2466C1.89264 20.6605 7.98245 23.5331 10.4184 25.6612C10.2957 25.7313 10.1818 25.7926 10.0854 25.8451C8.86744 26.4494 4.22341 28.8753 3.06679 31.4413C1.75244 34.3489 3.27708 36.4332 4.28475 36.7135C7.4129 37.5805 10.6287 36.0216 12.3548 33.4468C14.081 30.8721 13.8707 27.5266 13.0734 25.994C13.0646 25.9765 13.0558 25.959 13.0383 25.9414C13.3538 25.7575 13.678 25.5649 13.9934 25.3809C14.6155 25.0131 15.2289 24.6716 15.7546 24.3913C15.4567 25.2058 15.2377 26.1779 15.1325 27.5791C15.0011 29.2256 15.6758 31.3625 16.5608 32.2032C16.9551 32.5711 17.4195 32.5798 17.7174 32.5798C18.7513 32.5798 19.2157 31.7216 19.7327 30.7057C20.3636 29.4621 20.9332 28.017 20.9332 28.017C20.9332 28.017 20.2234 31.923 22.1511 31.923C22.8521 31.923 23.5619 31.0122 23.8773 30.548C23.8773 30.5568 23.8773 30.5568 23.8773 30.5568C23.8773 30.5568 23.8948 30.5305 23.9299 30.4692C24 30.3554 24.0438 30.2853 24.0438 30.2853C24.0438 30.2853 24.0438 30.2765 24.0438 30.2678C24.3242 29.7773 24.9551 28.6651 25.8926 26.8172C27.1018 24.4351 28.2672 21.4575 28.2672 21.4575C28.2672 21.4575 28.3724 22.1844 28.7316 23.3929C28.9419 24.1023 29.38 24.8818 29.7305 25.6349C29.4501 26.029 29.2749 26.248 29.2749 26.248C29.2749 26.248 29.2749 26.248 29.2837 26.2567C29.0558 26.5545 28.8105 26.8785 28.5389 27.1938C27.5838 28.3323 26.4447 29.6372 26.2869 30.0138C26.1029 30.4604 26.1467 30.7845 26.4972 31.0472C26.7513 31.2399 27.207 31.2662 27.6714 31.2399C28.5301 31.1786 29.1347 30.9684 29.4326 30.837C29.897 30.6706 30.4403 30.4167 30.9485 30.0401C31.8861 29.3482 32.4556 28.3586 32.403 27.0537C32.3768 26.3355 32.1402 25.6174 31.851 24.9431C31.9386 24.8205 32.0175 24.6978 32.1051 24.5752C33.586 22.4121 34.7338 20.0387 34.7338 20.0387C34.7338 20.0387 34.839 20.7656 35.1982 21.9742C35.3735 22.5872 35.7327 23.2528 36.0482 23.9009C34.655 25.0306 33.7962 26.3443 33.4896 27.2026C32.9375 28.7965 33.3669 29.5146 34.1818 29.681C34.5498 29.7598 35.0756 29.5847 35.4611 29.4183C35.9518 29.2606 36.5301 28.9891 37.0821 28.5863C38.0197 27.8944 38.9222 26.9311 38.8696 25.6262C38.8433 25.0306 38.6856 24.4439 38.4666 23.8746C39.6495 23.3842 41.1741 23.1127 43.1194 23.3404C47.2902 23.8308 48.1139 26.4319 47.9562 27.5266C47.7984 28.6213 46.9222 29.2168 46.6331 29.4008C46.3439 29.5847 46.2475 29.646 46.2738 29.7773C46.3089 29.97 46.449 29.9613 46.6944 29.9262C47.0361 29.8649 48.885 29.0417 48.9638 27.0274C49.0953 24.4526 46.6418 21.6414 42.3045 21.6677ZM10.1292 32.5098C8.74477 34.0161 6.81706 34.5853 5.98464 34.1037C5.09088 33.587 5.44138 31.3625 7.14127 29.7686C8.17522 28.7965 9.50709 27.8944 10.3921 27.3427C10.5936 27.2201 10.8915 27.0449 11.2508 26.826C11.3121 26.7909 11.3472 26.7734 11.3472 26.7734C11.4173 26.7296 11.4874 26.6859 11.5575 26.6421C12.1796 28.9191 11.5838 30.9246 10.1292 32.5098ZM20.2059 25.6612C19.724 26.8347 18.7163 29.8386 18.1029 29.6722C17.5772 29.5321 17.253 27.2551 17.9978 25.0044C18.3746 23.8746 19.1719 22.5259 19.6363 22.0005C20.3899 21.1597 21.2223 20.8795 21.4239 21.221C21.678 21.6677 20.5038 24.9255 20.2059 25.6612ZM28.5213 29.6372C28.3198 29.7423 28.127 29.8124 28.0394 29.7598C27.9781 29.7248 28.127 29.5847 28.127 29.5847C28.127 29.5847 29.1697 28.4637 29.5816 27.9557C29.8182 27.658 30.0986 27.3077 30.3965 26.9136C30.3965 26.9486 30.3965 26.9924 30.3965 27.0274C30.3965 28.3673 29.0996 29.2694 28.5213 29.6372ZM34.9354 28.1747C34.7864 28.0696 34.8127 27.7193 35.3121 26.6245C35.5049 26.1954 35.9605 25.4773 36.7404 24.7854C36.828 25.0657 36.8894 25.3372 36.8806 25.5911C36.8718 27.2814 35.6626 27.9119 34.9354 28.1747Z" fill="#012A36"/>
</svg>
